<?xml version="1.0" encoding="UTF-8" ?>
<!DOCTYPE svg PUBLIC "-//W3C//DTD SVG 1.1//EN" "http://www.w3.org/Graphics/SVG/1.1/DTD/svg11.dtd">
<svg width="65pt" height="65pt" viewBox="0 0 65 65" version="1.1" xmlns="http://www.w3.org/2000/svg">
<path fill="#ffffff" d=" M 0.00 0.00 L 30.48 0.00 L 28.77 0.59 C 31.95 0.52 35.24 0.17 38.16 1.69 C 45.10 2.78 51.47 6.63 56.00 11.94 C 53.32 9.98 50.89 7.64 47.93 6.08 C 42.20 3.02 35.46 2.06 29.05 2.69 C 25.94 3.44 22.72 4.23 20.07 6.09 C 18.35 7.28 16.96 9.71 18.35 11.66 C 20.62 15.20 24.65 17.01 28.22 18.93 C 31.83 21.03 35.92 21.97 40.09 21.76 C 40.48 22.20 41.26 23.06 41.65 23.50 C 45.75 23.41 50.33 22.50 53.91 25.07 C 58.67 27.96 60.77 33.97 59.37 39.29 C 59.29 39.61 59.12 40.25 59.03 40.57 C 56.96 45.17 52.28 48.77 47.08 48.45 C 42.84 48.60 39.28 45.92 36.71 42.82 C 34.45 42.78 32.19 42.76 29.92 42.78 C 27.36 45.69 24.03 48.38 19.96 48.44 C 13.05 49.11 6.48 42.97 6.65 36.04 C 6.40 30.31 10.57 24.85 16.13 23.52 C 19.39 23.05 22.69 23.49 25.97 23.39 C 27.42 21.61 29.70 21.57 31.81 21.33 C 26.63 19.75 21.32 17.56 17.61 13.48 C 16.00 11.89 16.17 9.52 16.29 7.45 C 19.51 3.43 24.44 1.95 29.33 1.17 C 21.41 0.74 14.24 5.39 9.05 10.98 C -0.00 20.88 -1.81 36.52 4.78 48.21 C 9.96 57.84 20.25 64.39 31.18 65.00 L 0.00 65.00 L 0.00 0.00 Z" />
<path fill="#103d65" d=" M 30.48 0.00 L 37.99 0.00 C 38.23 0.32 38.70 0.96 38.94 1.29 C 46.70 1.89 53.86 6.83 58.22 13.16 C 57.67 12.85 56.56 12.24 56.00 11.94 C 51.47 6.63 45.10 2.78 38.16 1.69 C 35.24 0.17 31.95 0.52 28.77 0.59 L 30.48 0.00 Z" />
<path fill="#ffffff" d=" M 37.99 0.00 L 65.00 0.00 L 65.00 25.78 C 63.49 21.96 62.63 17.67 59.63 14.65 C 59.18 14.14 58.70 13.65 58.22 13.16 C 53.86 6.83 46.70 1.89 38.94 1.29 C 38.70 0.96 38.23 0.32 37.99 0.00 Z" />
<path fill="#363939" d=" M 9.05 10.98 C 14.24 5.39 21.41 0.74 29.33 1.17 C 24.44 1.95 19.51 3.43 16.29 7.45 C 1.73 16.31 -1.76 38.90 9.65 51.63 C 17.10 61.04 30.12 65.06 41.66 61.88 C 45.83 60.57 49.95 58.66 52.99 55.42 C 53.51 55.58 54.55 55.89 55.07 56.05 C 49.59 61.25 42.36 64.44 34.81 65.00 L 31.18 65.00 C 20.25 64.39 9.96 57.84 4.78 48.21 C -1.81 36.52 -0.00 20.88 9.05 10.98 Z" />
<path fill="#103d65" d=" M 20.07 6.09 C 22.72 4.23 25.94 3.44 29.05 2.69 C 27.53 7.99 27.82 13.50 28.22 18.93 C 24.65 17.01 20.62 15.20 18.35 11.66 C 16.96 9.71 18.35 7.28 20.07 6.09 Z" />
<path fill="#235479" d=" M 29.05 2.69 C 35.46 2.06 42.20 3.02 47.93 6.08 C 50.89 7.64 53.32 9.98 56.00 11.94 C 56.56 12.24 57.67 12.85 58.22 13.16 C 58.70 13.65 59.18 14.14 59.63 14.65 C 58.89 16.94 60.21 18.99 61.01 21.04 C 63.32 26.67 63.66 33.08 62.01 38.93 C 61.35 39.02 60.03 39.20 59.37 39.29 C 60.77 33.97 58.67 27.96 53.91 25.07 C 50.33 22.50 45.75 23.41 41.65 23.50 C 41.26 23.06 40.48 22.20 40.09 21.76 C 35.92 21.97 31.83 21.03 28.22 18.93 C 27.82 13.50 27.53 7.99 29.05 2.69 Z" />
<path fill="#103d65" d=" M 9.65 51.63 C -1.76 38.90 1.73 16.31 16.29 7.45 C 16.17 9.52 16.00 11.89 17.61 13.48 C 21.32 17.56 26.63 19.75 31.81 21.33 C 29.70 21.57 27.42 21.61 25.97 23.39 C 22.69 23.49 19.39 23.05 16.13 23.52 C 10.57 24.85 6.40 30.31 6.65 36.04 C 6.48 42.97 13.05 49.11 19.96 48.44 C 24.03 48.38 27.36 45.69 29.92 42.78 C 32.19 42.76 34.45 42.78 36.71 42.82 C 39.28 45.92 42.84 48.60 47.08 48.45 C 52.28 48.77 56.96 45.17 59.03 40.57 C 58.37 47.44 50.39 51.82 44.05 49.82 C 40.82 49.08 38.71 46.35 36.04 44.62 C 31.14 44.01 27.66 48.53 23.18 49.81 C 18.52 51.11 13.63 50.82 8.86 50.57 L 9.65 51.63 Z" />
<path fill="#d3cecc" d=" M 61.01 21.04 C 60.21 18.99 58.89 16.94 59.63 14.65 C 62.63 17.67 63.49 21.96 65.00 25.78 L 65.00 39.27 C 64.22 42.09 63.22 44.87 61.74 47.40 C 61.11 47.16 59.86 46.69 59.24 46.45 C 60.29 44.00 61.32 41.52 62.01 38.93 C 63.66 33.08 63.32 26.67 61.01 21.04 Z" />
<path fill="#235479" d=" M 15.98 33.13 C 16.25 31.72 16.05 29.34 18.08 29.31 C 20.41 28.81 21.00 31.43 20.98 33.16 C 22.68 33.18 25.36 33.74 24.86 36.08 C 24.91 38.10 22.46 38.29 20.98 38.46 C 21.08 40.13 20.27 43.03 17.99 42.26 C 16.01 42.34 16.33 39.77 15.93 38.49 C 14.04 38.56 11.07 37.33 12.16 34.97 C 12.58 33.21 14.62 33.43 15.98 33.13 Z" />
<path fill="#24557a" d=" M 51.11 30.11 C 53.61 28.02 57.13 32.49 54.47 34.46 C 51.77 37.46 47.58 31.97 51.11 30.11 Z" />
<path fill="#25557a" d=" M 45.36 37.49 C 48.06 34.75 51.76 39.82 48.78 41.77 C 46.26 44.11 42.56 39.51 45.36 37.49 Z" />
<path fill="#2071b7" d=" M 59.03 40.57 C 59.12 40.25 59.29 39.61 59.37 39.29 C 60.03 39.20 61.35 39.02 62.01 38.93 C 61.32 41.52 60.29 44.00 59.24 46.45 C 59.86 46.69 61.11 47.16 61.74 47.40 C 60.49 49.37 59.14 51.27 57.81 53.18 C 56.57 52.48 55.38 51.63 54.01 51.18 C 52.10 51.63 52.41 54.02 52.99 55.42 C 49.95 58.66 45.83 60.57 41.66 61.88 C 34.39 59.99 27.50 56.09 23.18 49.81 C 27.66 48.53 31.14 44.01 36.04 44.62 C 38.71 46.35 40.82 49.08 44.05 49.82 C 50.39 51.82 58.37 47.44 59.03 40.57 Z" />
<path fill="#ffffff" d=" M 61.74 47.40 C 63.22 44.87 64.22 42.09 65.00 39.27 L 65.00 65.00 L 34.81 65.00 C 42.36 64.44 49.59 61.25 55.07 56.05 C 54.55 55.89 53.51 55.58 52.99 55.42 C 52.41 54.02 52.10 51.63 54.01 51.18 C 55.38 51.63 56.57 52.48 57.81 53.18 C 59.14 51.27 60.49 49.37 61.74 47.40 Z" />
<path fill="#55b8e9" d=" M 8.86 50.57 C 13.63 50.82 18.52 51.11 23.18 49.81 C 27.50 56.09 34.39 59.99 41.66 61.88 C 30.12 65.06 17.10 61.04 9.65 51.63 L 8.86 50.57 Z" />
</svg>
